<?xml version="1.0" standalone="no"?>
<!DOCTYPE svg PUBLIC "-//W3C//DTD SVG 20010904//EN"
 "http://www.w3.org/TR/2001/REC-SVG-20010904/DTD/svg10.dtd">
<svg version="1.0" xmlns="http://www.w3.org/2000/svg"
 width="512.000000pt" height="512.000000pt" viewBox="0 0 512.000000 512.000000"
 preserveAspectRatio="xMidYMid meet">

<g transform="translate(0.000000,512.000000) scale(0.100000,-0.100000)"
fill="#000000" stroke="none">
<path d="M4157 5110 c-90 -23 -121 -50 -692 -621 l-570 -569 -1325 -2 -1325
-3 -46 -23 c-74 -36 -125 -87 -161 -160 l-33 -67 -3 -1680 -2 -1680 21 -69
c18 -60 29 -78 82 -131 52 -52 73 -65 132 -83 l70 -23 1680 3 1680 3 67 33
c73 36 124 87 160 161 l23 46 3 1325 2 1325 424 425 c233 234 427 435 431 448
4 12 0 35 -8 51 -14 29 -14 30 37 80 39 38 55 48 66 41 8 -5 31 -10 51 -10 31
0 44 8 88 55 76 80 105 150 106 250 0 141 -12 159 -372 517 -258 258 -317 311
-365 333 -63 29 -161 40 -221 25z m-72 -1030 l390 -390 -123 -122 -122 -123
-392 392 -393 393 120 120 c66 66 122 120 125 120 3 0 181 -175 395 -390z
m-1277 -1147 l-848 -848 -165 165 -165 165 847 847 848 848 165 -165 165 -165
-847 -847z m-88 820 c0 -4 -303 -311 -673 -683 -613 -615 -677 -681 -709 -745
-37 -72 -450 -1161 -474 -1249 -18 -66 -4 -118 45 -167 49 -49 101 -63 167
-45 69 18 1168 432 1227 462 26 13 67 37 90 53 23 16 337 325 697 685 360 361
658 656 662 656 11 0 9 -2367 -2 -2414 -11 -51 -38 -86 -86 -113 l-39 -23
-1657 0 c-1147 0 -1665 3 -1685 11 -38 14 -83 57 -99 96 -12 27 -14 304 -14
1690 l0 1658 23 39 c26 47 62 75 108 86 43 10 2419 13 2419 3z m1228 -266
l162 -162 -848 -848 -847 -847 -165 165 -165 165 845 845 c465 465 847 845
850 845 3 0 78 -73 168 -163z m-1671 -1980 c-40 -27 -117 -60 -311 -133 l-220
-82 -44 92 c-38 76 -60 106 -136 182 -71 71 -109 99 -172 131 -45 22 -86 42
-92 44 -15 5 146 441 191 517 l20 34 388 -388 c266 -266 384 -391 376 -397z"/>
</g>
</svg>
