<?xml version="1.0" standalone="no"?>
<!DOCTYPE svg PUBLIC "-//W3C//DTD SVG 20010904//EN"
 "http://www.w3.org/TR/2001/REC-SVG-20010904/DTD/svg10.dtd">
<svg version="1.0" xmlns="http://www.w3.org/2000/svg"
 width="512.000000pt" height="512.000000pt" viewBox="0 0 512.000000 512.000000"
 preserveAspectRatio="xMidYMid meet">

<g transform="translate(0.000000,512.000000) scale(0.100000,-0.100000)"
fill="#000000" stroke="none">
<path d="M2844 4479 l-609 -609 1235 0 c800 0 1257 4 1299 10 127 21 243 106
301 220 126 251 -32 550 -312 590 -35 5 -291 10 -569 10 l-506 0 -6 76 c-9
125 -82 240 -184 293 l-39 20 -610 -610z"/>
<path d="M1860 3495 c-197 -197 -221 -225 -197 -225 38 0 104 -62 117 -110 7
-26 9 -438 8 -1227 -3 -1178 -3 -1188 -24 -1223 -11 -19 -35 -45 -54 -57 -31
-22 -43 -23 -220 -23 -178 0 -189 1 -220 23 -18 12 -43 35 -54 50 -21 28 -21
31 -24 1075 l-2 1047 -385 -385 -385 -385 0 -800 c0 -474 4 -829 10 -870 28
-193 176 -344 370 -374 93 -15 3455 -15 3536 0 80 15 184 71 239 130 53 57
100 150 115 228 6 35 10 623 10 1702 l0 1649 -1308 0 -1307 0 -225 -225z m920
-248 c19 -12 43 -38 54 -57 21 -35 21 -42 21 -1240 0 -1198 0 -1205 -21 -1240
-11 -19 -35 -45 -54 -57 -31 -22 -43 -23 -220 -23 -178 0 -189 1 -220 23 -18
12 -43 35 -54 50 -21 28 -21 29 -24 1225 -2 813 0 1209 8 1233 11 38 52 86 85
100 11 4 104 8 206 8 177 1 188 0 219 -22z m1070 0 c19 -12 43 -38 54 -57 21
-35 21 -42 21 -1240 0 -1194 -1 -1206 -21 -1240 -11 -19 -35 -45 -54 -57 -31
-22 -43 -23 -217 -23 -206 0 -222 4 -270 67 l-28 36 0 1218 0 1218 21 28 c11
15 36 38 54 51 31 21 42 22 220 22 177 0 189 -1 220 -23z"/>
</g>
</svg>
